<svg width="1200" height="900" viewBox="0 0 1200 900" fill="none" xmlns="http://www.w3.org/2000/svg">
  <defs>
    <linearGradient id="bg" x1="92" y1="56" x2="1100" y2="830" gradientUnits="userSpaceOnUse">
      <stop stop-color="#0B1220"/>
      <stop offset="1" stop-color="#111827"/>
    </linearGradient>
    <linearGradient id="essenceCard" x1="116" y1="192" x2="484" y2="690" gradientUnits="userSpaceOnUse">
      <stop stop-color="#1F2937"/>
      <stop offset="1" stop-color="#111827"/>
    </linearGradient>
    <linearGradient id="janeCard" x1="716" y1="192" x2="1084" y2="690" gradientUnits="userSpaceOnUse">
      <stop stop-color="#1E1B4B"/>
      <stop offset="1" stop-color="#111827"/>
    </linearGradient>
    <linearGradient id="centerCard" x1="448" y1="266" x2="752" y2="636" gradientUnits="userSpaceOnUse">
      <stop stop-color="#172554"/>
      <stop offset="1" stop-color="#0F172A"/>
    </linearGradient>
    <linearGradient id="flow" x1="260" y1="454" x2="940" y2="454" gradientUnits="userSpaceOnUse">
      <stop stop-color="#F59E0B"/>
      <stop offset="0.5" stop-color="#A78BFA"/>
      <stop offset="1" stop-color="#22C55E"/>
    </linearGradient>
    <filter id="shadow" x="72" y="140" width="1056" height="624" filterUnits="userSpaceOnUse" color-interpolation-filters="sRGB">
      <feDropShadow dx="0" dy="22" stdDeviation="22" flood-color="#020617" flood-opacity="0.45"/>
    </filter>
  </defs>

  <rect width="1200" height="900" rx="36" fill="url(#bg)"/>
  <circle cx="258" cy="180" r="118" fill="#F59E0B" fill-opacity="0.08"/>
  <circle cx="930" cy="170" r="126" fill="#8B5CF6" fill-opacity="0.11"/>
  <circle cx="610" cy="730" r="160" fill="#0EA5E9" fill-opacity="0.07"/>

  <g filter="url(#shadow)">
    <rect x="116" y="194" width="344" height="474" rx="30" fill="url(#essenceCard)" stroke="#374151" stroke-width="2"/>
    <rect x="428" y="262" width="344" height="338" rx="32" fill="url(#centerCard)" stroke="#334155" stroke-width="2"/>
    <rect x="740" y="194" width="344" height="474" rx="30" fill="url(#janeCard)" stroke="#4338CA" stroke-opacity="0.5" stroke-width="2"/>
  </g>

  <g opacity="0.96">
    <rect x="152" y="230" width="74" height="74" rx="22" fill="#F59E0B" fill-opacity="0.16" stroke="#F59E0B" stroke-opacity="0.45"/>
    <path d="M176 257H205" stroke="#FCD34D" stroke-width="4" stroke-linecap="round"/>
    <path d="M176 272H214" stroke="#FCD34D" stroke-width="4" stroke-linecap="round"/>
    <path d="M176 287H196" stroke="#FCD34D" stroke-width="4" stroke-linecap="round"/>
    <text x="152" y="346" fill="#F8FAFC" font-family="Arial, sans-serif" font-size="36" font-weight="700">Essences</text>
    <text x="152" y="384" fill="#FBBF24" font-family="Arial, sans-serif" font-size="22">loadable AI personas</text>

    <rect x="152" y="424" width="272" height="60" rx="18" fill="#111827" stroke="#374151"/>
    <text x="180" y="462" fill="#CBD5E1" font-family="Arial, sans-serif" font-size="20">Files</text>
    <circle cx="378" cy="454" r="10" fill="#22C55E"/>

    <rect x="152" y="500" width="272" height="60" rx="18" fill="#111827" stroke="#374151"/>
    <text x="180" y="538" fill="#CBD5E1" font-family="Arial, sans-serif" font-size="20">Conversations</text>
    <circle cx="378" cy="530" r="10" fill="#A78BFA"/>

    <rect x="152" y="576" width="272" height="60" rx="18" fill="#111827" stroke="#374151"/>
    <text x="180" y="614" fill="#CBD5E1" font-family="Arial, sans-serif" font-size="20">Preferences</text>
    <circle cx="378" cy="606" r="10" fill="#38BDF8"/>
  </g>

  <g opacity="0.98">
    <rect x="776" y="230" width="74" height="74" rx="22" fill="#8B5CF6" fill-opacity="0.16" stroke="#8B5CF6" stroke-opacity="0.45"/>
    <path d="M802 254L824 266L802 278Z" fill="#C4B5FD"/>
    <rect x="824" y="254" width="10" height="24" rx="4" fill="#C4B5FD"/>
    <text x="776" y="346" fill="#F8FAFC" font-family="Arial, sans-serif" font-size="36" font-weight="700">Jane</text>
    <text x="776" y="384" fill="#C4B5FD" font-family="Arial, sans-serif" font-size="22">builds what comes next</text>

    <rect x="776" y="424" width="272" height="78" rx="18" fill="#0F172A" stroke="#312E81"/>
    <text x="804" y="459" fill="#E2E8F0" font-family="Courier New, monospace" font-size="20">add capability:</text>
    <text x="804" y="487" fill="#A5B4FC" font-family="Courier New, monospace" font-size="18">read markdown notes</text>

    <rect x="776" y="524" width="272" height="52" rx="16" fill="#111827" stroke="#312E81"/>
    <text x="804" y="557" fill="#CBD5E1" font-family="Arial, sans-serif" font-size="20">Code changes</text>

    <rect x="776" y="594" width="272" height="52" rx="16" fill="#111827" stroke="#312E81"/>
    <text x="804" y="627" fill="#CBD5E1" font-family="Arial, sans-serif" font-size="20">New essence tools</text>
  </g>

  <g>
    <text x="520" y="320" fill="#F8FAFC" font-family="Arial, sans-serif" font-size="30" font-weight="700">Vessence</text>
    <text x="484" y="356" fill="#93C5FD" font-family="Arial, sans-serif" font-size="20">one system with shared memory</text>

    <rect x="474" y="404" width="252" height="68" rx="20" fill="#111827" stroke="#334155"/>
    <text x="504" y="446" fill="#CBD5E1" font-family="Arial, sans-serif" font-size="22">Memory</text>
    <circle cx="678" cy="438" r="10" fill="#F59E0B"/>

    <rect x="474" y="492" width="252" height="68" rx="20" fill="#111827" stroke="#334155"/>
    <text x="504" y="534" fill="#CBD5E1" font-family="Arial, sans-serif" font-size="22">Vault</text>
    <circle cx="678" cy="526" r="10" fill="#38BDF8"/>
  </g>

  <path d="M430 454H474" stroke="url(#flow)" stroke-width="8" stroke-linecap="round"/>
  <path d="M726 454H770" stroke="url(#flow)" stroke-width="8" stroke-linecap="round"/>
  <path d="M736 454L716 442V466L736 454Z" fill="#A78BFA"/>
  <path d="M464 454L484 442V466L464 454Z" fill="#F59E0B"/>

  <text x="320" y="748" text-anchor="middle" fill="#94A3B8" font-family="Arial, sans-serif" font-size="20">Essences define roles</text>
  <text x="880" y="748" text-anchor="middle" fill="#94A3B8" font-family="Arial, sans-serif" font-size="20">Jane turns requests into capabilities</text>
</svg>
